Coordinates

Units are S.I. units (second, meters, Newtons, ...)
If the header above contains a line with 'inDegrees', this indicates whether rotational values are in degrees (yes) or radians (no).

inDegrees=no
nColumns=21
nRows=17
DataType=double
version=3
OpenSimVersion=4.6-2026-03-31-d6972f9e6
endheader
time	/jointset/ground_pelvis/pelvis_tilt/value	/jointset/ground_pelvis/pelvis_list/value	/jointset/ground_pelvis/pelvis_rotation/value	/jointset/ground_pelvis/pelvis_tx/value	/jointset/ground_pelvis/pelvis_ty/value	/jointset/ground_pelvis/pelvis_tz/value	/jointset/hip_r/hip_flexion_r/value	/jointset/hip_r/hip_adduction_r/value	/jointset/hip_r/hip_rotation_r/value	/jointset/walker_knee_r/knee_angle_r/value	/jointset/patellofemoral_r/knee_angle_r_beta/value	/jointset/ankle_r/ankle_angle_r/value	/jointset/subtalar_r/subtalar_angle_r/value	/jointset/hip_l/hip_flexion_l/value	/jointset/hip_l/hip_adduction_l/value	/jointset/hip_l/hip_rotation_l/value	/jointset/walker_knee_l/knee_angle_l/value	/jointset/patellofemoral_l/knee_angle_l_beta/value	/jointset/ankle_l/ankle_angle_l/value	/jointset/subtalar_l/subtalar_angle_l/value
144.996	-0.08445366495295724	-0.0745862238381042	-0.1645189835501137	1.176018117532313	0.9334067342949428	-0.2836415441991404	0.464118051163954	0.1585140307327963	0.04757456504017148	0.4801932830898122	0.4801932816636604	0.08465184635888218	-0.06699217723203918	-0.0467617197595478	-0.05593568162683369	-0.08560645189301484	1.1760924509247	1.176092450632094	-0.2449997934797838	-0.1603959999534308
145	-0.08327774565693342	-0.08045662679947434	-0.1675913594651625	1.175265222589378	0.9302355538234273	-0.2833022819867261	0.4647421619673919	0.1663504755096562	0.04669664101187827	0.5100959793900776	0.5100959778605045	0.1008465784765624	-0.08036665464967024	-0.03295815828393388	-0.06798965069920591	-0.0908956459508774	1.21408880488721	1.214088804571657	-0.2383666681845594	-0.1675517195837275
145.004	-0.08285982015197509	-0.08623658848135611	-0.1702215586262026	1.174471156989322	0.9270119796520145	-0.2829832386613157	0.4659263652206403	0.174021125752793	0.04618813178850446	0.5397659363514732	0.5397659347351352	0.1178730815649799	-0.09341085750679781	-0.01787363497730349	-0.08037643687105225	-0.09541283526648975	1.251461732198985	1.251461731884374	-0.2328268766887775	-0.177129234300959
145.008	-0.08317614959266853	-0.09188033034228725	-0.1723609614590448	1.173637580031288	0.9237665614217893	-0.2826913512580014	0.4675705157058875	0.1814483022042029	0.04599011322093337	0.5689546968265184	0.5689546951470451	0.1355703618271866	-0.1059521689555656	-0.001501534076874532	-0.09296049854130944	-0.09898308709387944	1.288060091961755	1.288060091669272	-0.2283196587415448	-0.1889705549609645
145.012	-0.08417891392651836	-0.09735023701136886	-0.1739640683263151	1.172767243735012	0.9205319925626797	-0.2824336703115479	0.4695442826894523	0.1885576244189853	0.04603354884497535	0.5974198170482444	0.5974198153355688	0.1537621717635755	-0.1178346442350202	0.01613650673428181	-0.1056036150917615	-0.1014547183708854	1.323728404222579	1.323728403969101	-0.2247667730882006	-0.2028644380516985
145.016	-0.08579859197612404	-0.102616397297543	-0.1749894731352618	1.171863973096148	0.9173422550337027	-0.2822170959524848	0.4716912735436047	0.1952790695601262	0.0462425613169684	0.6249275951403803	0.6249275934294727	0.1722628047664855	-0.1289223752661359	0.03499137814341371	-0.118167086909688	-0.1027031553622834	1.358308932186723	1.358308931983936	-0.2220750490066031	-0.2185534393448622
145.02	-0.08794728603640727	-0.1076557099588576	-0.1754008098059722	1.17093259150607	0.9142317002840992	-0.2820481007921111	0.4738344942866615	0.2015479676811869	0.04653791231291937	0.6512560736030949	0.6512560719322096	0.190882921703402	-0.1391025101607109	0.05498839022347329	-0.1305138589622593	-0.1026339139340901	1.391644053023612	1.391644052877826	-0.2201390341092753	-0.2357421459436191
145.024	-0.09052282642753592	-0.1124506964457983	-0.1751676560804446	1.169978797582558	0.9112341100280236	-0.2819324516993248	0.4757828611666435	0.2073059768872546	0.04684054732398491	0.6761981745258178	0.6761981729344643	0.2094350431074064	-0.1482877370985614	0.07603013692625503	-0.1425106057065497	-0.1011846508623797	1.423578799220115	1.423578799132579	-0.2188437073762387	-0.2541062507094007
145.028	-0.09341334769927773	-0.1169881836659685	-0.1742663622524026	1.169009004448698	0.9083817907403015	-0.2818749440537636	0.4773382870681369	0.2125020610628863	0.04707507509378715	0.6995647640299355	0.6995647625568071	0.2277384092341916	-0.1564180881296667	0.09800002955571768	-0.1540297952528075	-0.09832625684519374	1.453963412946365	1.453963412913851	-0.2180672379990362	-0.2733020966120056
145.032	-0.09650212385252513	-0.1212579670433497	-0.1726807581490128	1.16803015286092	0.9057047430077276	-0.2818791631245379	0.4783029915473284	0.2170934298728577	0.04717302202214625	0.7211874677525316	0.7211874664335498	0.2456229660060458	-0.1634619418241305	0.1207663258521539	-0.1649516971641716	-0.09406295479010203	1.482655786708423	1.482655786723932	-0.2176838364607632	-0.2929764121109465
145.036	-0.09967261202248956	-0.1252515173348017	-0.17040269495635	1.167049508559411	0.9032299262940618	-0.2819472870978857	0.4784869032760334	0.2210463606237961	0.04707564787237832	0.7409211339180013	0.740921132784553	0.2629323015699495	-0.169416114798442	0.1441866798217789	-0.1751662813929142	-0.088431390744935	1.509523720274893	1.50952372032851	-0.217566791147139	-0.3127760818741204
145.04	-0.1028135962320607	-0.1289608073171732	-0.1674323933537717	1.166074455374535	0.9009806374658222	-0.2820799443160127	0.4777149697335512	0.2243368348206441	0.0467361165638104	0.7586458640612	0.7586458631385931	0.2795254570346983	-0.1743049839832173	0.1681131486362137	-0.1845749807164831	-0.08149877946737701	1.534446927720327	1.534446927800222	-0.2175917352471753	-0.3323577891936715
145.044	-0.1058240780638403	-0.1323773470474989	-0.1637785866654329	1.165112297053078	0.898976035902062	-0.2822761328713435	0.475833898495975	0.2269509500177543	0.04612096132207211	0.7742684905097443	0.7742684898159025	0.2952776281261016	-0.1781787048648924	0.1923972737271773	-0.1930922766917105	-0.07336023900392827	1.557318686836338	1.557318686929762	-0.2176400444102473	-0.3513971921101752
145.048	-0.1086173797460516	-0.1354914897292397	-0.159458459359468	1.164170079994832	0.8972308571511921	-0.2825332058572444	0.4727176441438435	0.2288850773964934	0.04521096111104262	0.7877233466478083	0.7877233461922991	0.31007983881896	-0.1811107235257208	0.2168946181361993	-0.2006470146867975	-0.06413547653122868	1.578046998431621	1.57804699852572	-0.2176021305219085	-0.3695971274372538
145.052	-0.1111240783369361	-0.138292049790791	-0.1544973721769333	1.16325444595199	0.8957553370478136	-0.2828469244193585	0.4682711584415628	0.2301457451033252	0.04400151099633869	0.7989722270051836	0.7989722267886998	0.3238377146229165	-0.1831947851552363	0.2414683178103285	-0.2071833674024172	-0.05396495970371722	1.59655518166325	1.596555181745662	-0.2173804421977128	-0.3866944705171807
145.056	-0.1132937486344017	-0.1407662718699245	-0.1489283517138437	1.162371520156884	0.8945553311642886	-0.2832115806884017	0.4624323764646845	0.2307492508705118	0.04250239325158335	0.8080035414151917	0.8080035414294386	0.3364695235828893	-0.1845415465191625	0.2659916243494078	-0.2126614521423572	-0.04300567022262718	1.612781937864472	1.612781937923854	-0.2168921392633804	-0.4024656085110646
145.06	-0.1150955884493783	-0.1429001399030947	-0.1427913597858394	1.161526838494652	0.8936326018693819	-0.2836201849399881	0.4551725497348855	0.2307210201475666	0.04073690699160178	0.8148307376445079	0.8148307378722215	0.347903679348856	-0.1852749116163928	0.2903494973617388	-0.2170576222226851	-0.03142659281049939	1.626680943562004	1.626680943588769	-0.2160713783862585	-0.4167305382716648
